<svg width="24" height="24" viewBox="0 0 24 24" fill="none" xmlns="http://www.w3.org/2000/svg">
<path d="M24 12C24 5.37162 18.6272 2.01876e-07 12 1.30052e-07C5.37283 5.8229e-08 2.4441e-07 5.37283 1.57454e-07 12C7.04976e-08 18.6272 5.37283 24 12 24C18.6272 24 24 18.6272 24 12ZM1.50015 12C1.50015 6.21026 6.21026 1.50015 12 1.50015C17.7897 1.50015 22.4999 6.21026 22.4999 12C22.4999 17.7897 17.7897 22.4998 12 22.4998C6.21026 22.4998 1.50015 17.7897 1.50015 12Z" fill="#82899B"/>
<path d="M9.97223 12.7494L18.0261 12.7494L18.0261 11.2492L9.96741 11.2492L12.9653 8.25015L11.905 7.1898L7.09845 11.9963L11.911 16.8088L12.9725 15.7485L9.97223 12.7494Z" fill="#82899B"/>
</svg>
