<svg width="24" height="24" viewBox="0 0 24 24" fill="none" xmlns="http://www.w3.org/2000/svg">
<path d="M-5.77156e-07 12C-8.95957e-07 18.6284 5.37283 24 12 24C18.6272 24 24 18.6272 24 12C24 5.37283 18.6272 -2.13442e-07 12 -4.76715e-07C5.37283 -7.39987e-07 -2.58413e-07 5.37283 -5.77156e-07 12ZM22.4998 12C22.4998 17.7897 17.7897 22.4999 12 22.4999C6.21026 22.4999 1.50015 17.7897 1.50015 12C1.50015 6.21026 6.21026 1.50015 12 1.50015C17.7897 1.50015 22.4998 6.21026 22.4998 12Z" fill="#82899B"/>
<path d="M14.0278 11.2506L5.97401 11.2506L5.97401 12.7508L14.0326 12.7508L11.0348 15.7499L12.0951 16.8102L16.9016 12.0037L12.0891 7.19116L11.0275 8.25151L14.0278 11.2506Z" fill="#82899B"/>
</svg>
