<?xml version="1.0" encoding="UTF-8" standalone="no"?>
<svg
   xmlns:dc="http://purl.org/dc/elements/1.1/"
   xmlns:cc="http://creativecommons.org/ns#"
   xmlns:rdf="http://www.w3.org/1999/02/22-rdf-syntax-ns#"
   xmlns:svg="http://www.w3.org/2000/svg"
   xmlns="http://www.w3.org/2000/svg"
   xmlns:sodipodi="http://sodipodi.sourceforge.net/DTD/sodipodi-0.dtd"
   xmlns:inkscape="http://www.inkscape.org/namespaces/inkscape"
   viewBox="0 0 144 144"
   fill="none"
   version="1.1"
   id="svg58"
   sodipodi:docname="method-2.svg"
   width="144"
   height="144"
   inkscape:version="1.0.2-2 (e86c870879, 2021-01-15)">
  <metadata
     id="metadata62">
    <rdf:RDF>
      <cc:Work
         rdf:about="">
        <dc:format>image/svg+xml</dc:format>
        <dc:type
           rdf:resource="http://purl.org/dc/dcmitype/StillImage" />
        <dc:title></dc:title>
      </cc:Work>
    </rdf:RDF>
  </metadata>
  <sodipodi:namedview
     pagecolor="#ffffff"
     bordercolor="#666666"
     borderopacity="1"
     objecttolerance="10"
     gridtolerance="10"
     guidetolerance="10"
     inkscape:pageopacity="0"
     inkscape:pageshadow="2"
     inkscape:window-width="1920"
     inkscape:window-height="1017"
     id="namedview60"
     showgrid="false"
     inkscape:zoom="2.4147727"
     inkscape:cx="55.678087"
     inkscape:cy="114.14095"
     inkscape:window-x="-8"
     inkscape:window-y="-8"
     inkscape:window-maximized="1"
     inkscape:current-layer="svg58" />
  <path
     d="m 73.8,55 a 6,6 0 0 1 2.6,3.6 c 0.4,1.7 0,3.6 -1,5 -0.6,1 -1.5,2 -2,3.2 -1,2 -0.5,4 0.2,6 A 5.4,5.4 0 0 1 71.1,69.6 C 70.7,68 70.8,66.3 71.5,64.8 l 2,-3 c 1.4,-2 1,-4.5 0.3,-6.8 z m -4.2,3.3 c -0.2,1 -0.7,1.8 -1.3,2.6 -1,1 -1.6,2.6 -1.4,4 0.2,1.5 1,2.8 2.2,3.4 -0.5,-1.3 -0.7,-2.4 -0.5,-3.4 0,-1 0.6,-1.9 1.3,-2.7 0.9,-1 1.5,-2.5 1.3,-4 -0.2,-1.5 -1,-2.7 -2.1,-3.3 0.4,1.1 0.6,2.3 0.5,3.4 z m 28.7,27 a 7.8,7.8 0 0 0 -6.2,-1.8 l -0.8,0.1 -0.4,-3 c -0.1,-1.1 -1.2,-2 -2.4,-2 H 55 c -1.1,0 -2.2,0.9 -2.4,2 -0.4,2.3 -0.6,4.7 -0.6,7 0,11.1 4.2,21 11,25.9 0.9,0.6 2,0.9 3,0.9 h 11.5 a 5,5 0 0 0 3,-1 c 3.2,-2.3 6,-5.9 7.8,-10.2 A 25,25 0 0 0 98.5,97.8 10,10 0 0 0 101,91 c 0,-2.2 -1,-4.3 -2.7,-5.8 z M 78.7,111 c -0.3,0.2 -0.7,0.4 -1.2,0.4 H 66 c -0.4,0 -0.8,-0.2 -1.1,-0.4 -6,-4.2 -9.7,-13.4 -9.7,-23.4 0,-2 0,-4 0.4,-5.9 H 88 c 0.3,2 0.4,4 0.4,6 0,10 -3.8,19.1 -9.7,23.3 z M 96.3,95.9 a 16.5,16.5 0 0 1 -6.5,3.6 c 1,-3.6 1.7,-7.7 1.7,-11.9 v -0.8 c 1.7,-0.6 3.5,-0.3 4.9,0.8 1,1 1.7,2.2 1.7,3.6 0,1.6 -0.6,3.2 -1.8,4.7 z"
     fill="#000000"
     id="path33" />
  <path
     d="m 76.3,108.9 c 0.4,0 0.7,-0.1 1,-0.3 2.8,-2 5,-5.4 6.4,-9.5 l 1,-3.8 h -26 c 0.2,1.3 0.5,2.6 1,3.8 a 19,19 0 0 0 6.3,9.5 c 0.3,0.2 0.6,0.3 1,0.3 z m -21.3,8 a 1,1 0 0 0 0,2 z m 33.5,2 a 1,1 0 1 0 0,-2 z m -33.4,0 h 33.4 v -2 H 55 v 2 z M 49.2,25.4 H 46.8 L 44,27.2 v 2.2 l 2.6,-1.7 h 0.1 V 37 h 2.5 z m 8.2,4.8 H 52 v 2 h 5.3 v -2 z M 59,37 h 8.3 v -2 h -4.9 l 1.7,-1.8 c 2.4,-2.1 3,-3.2 3,-4.6 0,-2 -1.6,-3.4 -4.1,-3.4 -2.4,0 -4.1,1.5 -4.1,3.7 h 2.3 c 0,-1 0.7,-1.7 1.8,-1.7 1,0 1.8,0.6 1.8,1.6 0,1 -0.6,1.6 -1.7,2.6 L 59,35.2 Z m 13.8,0 h 2.4 v -5.2 c 0,-1 0.6,-1.6 1.4,-1.6 0.8,0 1.4,0.5 1.4,1.4 V 37 h 2.3 v -5.3 c 0,-1 0.5,-1.5 1.4,-1.5 0.8,0 1.4,0.4 1.4,1.4 V 37 h 2.4 v -5.9 c 0,-1.9 -1.1,-3 -2.8,-3 -1.2,0 -2.2,0.7 -2.6,1.7 -0.4,-1 -1.3,-1.6 -2.5,-1.6 -1.1,0 -2,0.6 -2.4,1.6 v -1.5 h -2.4 z m 14.6,0 h 2.4 v -8.7 h -2.4 z m 1.2,-9.9 c 0.7,0 1.3,-0.5 1.3,-1.2 0,-0.6 -0.6,-1.2 -1.3,-1.2 -0.7,0 -1.3,0.5 -1.3,1.2 0,0.7 0.6,1.2 1.3,1.2 z m 5.6,4.9 c 0,-1.2 0.7,-1.8 1.6,-1.8 1,0 1.6,0.6 1.6,1.7 V 37 h 2.4 v -5.6 c 0,-2 -1.2,-3.2 -3,-3.2 -1.3,0 -2.2,0.6 -2.6,1.6 H 94.1 V 28.3 H 91.8 V 37 h 2.4 z"
     fill="#000000"
     id="path35" />
  <g
     filter="url(#filter0_d)"
     id="g39"
     transform="translate(-16,-8)">
    <circle
       cx="88"
       cy="80"
       r="70"
       stroke="#cc1414"
       stroke-width="4"
       stroke-linecap="round"
       stroke-dasharray="2, 8"
       id="circle37" />
  </g>
  <defs
     id="defs56">
    <filter
       id="filter0_d"
       x="0"
       y="0"
       width="176"
       height="176"
       filterUnits="userSpaceOnUse"
       color-interpolation-filters="sRGB">
      <feFlood
         flood-opacity="0"
         result="BackgroundImageFix"
         id="feFlood41" />
      <feColorMatrix
         in="SourceAlpha"
         values="0 0 0 0 0 0 0 0 0 0 0 0 0 0 0 0 0 0 127 0"
         id="feColorMatrix43" />
      <feOffset
         dy="8"
         id="feOffset45" />
      <feGaussianBlur
         stdDeviation="8"
         id="feGaussianBlur47" />
      <feColorMatrix
         values="0 0 0 0 0.929412 0 0 0 0 0.0588235 0 0 0 0 0.160784 0 0 0 0.24 0"
         id="feColorMatrix49" />
      <feBlend
         in2="BackgroundImageFix"
         result="effect1_dropShadow"
         id="feBlend51"
         mode="normal" />
      <feBlend
         in="SourceGraphic"
         in2="effect1_dropShadow"
         result="shape"
         id="feBlend53"
         mode="normal" />
    </filter>
  </defs>
</svg>
