<svg xmlns="http://www.w3.org/2000/svg" fill="none" width="144" height="144"><g filter="url(#filter0_d)" transform="translate(-16 -8)"><circle cx="88" cy="80" r="70" stroke="#cc1414" stroke-width="4" stroke-linecap="round" stroke-dasharray="2, 8"/></g><path d="M99.3 85.3a7.8 7.8 0 00-6.2-1.8l-.8.1-.4-3c-.1-1.1-1.2-2-2.4-2H56c-1.1 0-2.2.9-2.4 2-.4 2.3-.6 4.7-.6 7 0 11.1 4.2 21 11 25.9.9.6 2 .9 3 .9h11.5a5 5 0 003-1 24 24 0 007.8-10.2 25 25 0 0010.2-5.4A10 10 0 00102 91c0-2.2-1-4.3-2.7-5.8zM79.7 111c-.3.2-.7.4-1.2.4H67c-.4 0-.8-.2-1.1-.4-6-4.2-9.7-13.4-9.7-23.4 0-2 0-4 .4-5.9H89c.3 2 .4 4 .4 6 0 10-3.8 19.1-9.7 23.3zm17.6-15.1a16.5 16.5 0 01-6.5 3.6 45 45 0 001.7-11.9v-.8a5 5 0 014.9.8c1 1 1.7 2.2 1.7 3.6 0 1.6-.6 3.2-1.8 4.7z" fill="#000"/><path d="M77.3 108.9c.4 0 .7-.1 1-.3 2.8-2 5-5.4 6.4-9.5l1-3.8h-26c.2 1.3.5 2.6 1 3.8a19 19 0 006.3 9.5c.3.2.6.3 1 .3zm-21.3 8a1 1 0 000 2zm33.5 2a1 1 0 100-2zm-33.4 0h33.4v-2H56v2zm34.7-60.1a4 4 0 00-1.2-1l-2.1-1.1.3-.8c.3-.7.2-1.5 0-2.3a4.7 4.7 0 00-3.3-3l-4.3-1-.3-1a5.2 5.2 0 00-3.4-3h-.6l-.4-.1h-5.9l-.5.1h-.2l-.6.3a5 5 0 00-2.7 2.7l-.3 1-4.3 1a4.7 4.7 0 00-3.2 3c-.4.8-.4 1.6 0 2.3l.2.8-2.1 1.1a4 4 0 00-1.3 1c-1.2 1.5-1.2 3.7-.2 6.3a1 1 0 001.3.5l5.4-2.1c.8.8 2 1.1 3.2.9l3.5-.9c0 .2.2.3.3.4.5.5 1.1.8 1.9.8h5.5c1 0 1.7-.5 2.2-1.2l3.5.9c1.2.2 2.4-.1 3.2-1l5.3 2.2c.6.2 1.1 0 1.3-.5 1.1-2.6 1-4.8-.2-6.3zM75.1 47.5a3.2 3.2 0 012.9 1.7l.2.8-2 12.2c-.1.3-.4.5-.7.5H70a.6.6 0 01-.6-.5l-2-12.2c-.1-.2 0-.4.1-.8a3 3 0 012.4-1.7zM56 63.4c-.4-1-.5-2.4.2-3.3l.6-.5 2-1 1.2 3.2zm7.8-1c-.7.2-1.4-.2-1.7-.9l-2.5-6.3c0-.2-.2-.5 0-1a3 3 0 012-1.6l4-1 1.6 10zm17.9 0l-3.4-.8 1.6-10 4 1a3 3 0 012 1.6v1l-2.5 6.3c-.3.7-1 1-1.7 1zm3.7-.6l1.3-3.2 2 1 .6.5c.7.9.5 2.2.2 3.3l-4-1.6zm-27-33.5h-2.5l2.5 4.3-2.6 4.4h2.5l1.7-3 1.7 3h2.5l-2.6-4.4 2.5-4.3h-2.5l-1.6 3zm12.2-3h-2.4l-2.8 1.9v2.2l2.6-1.7h.1V37h2.5V25.4zm8.2 5h-5.3V32h5.3v-1.9zm1.7 6.7h8.3v-2h-4.9l1.7-1.8c2.4-2.1 3-3.2 3-4.6 0-2-1.6-3.4-4.1-3.4-2.4 0-4.1 1.5-4.1 3.7h2.3c0-1 .7-1.7 1.8-1.7 1 0 1.8.6 1.8 1.6s-.6 1.6-1.7 2.6l-4.1 3.8z" fill="#000"/><defs id="defs25"><filter id="filter0_d" x="0" y="0" width="176" height="176" filterUnits="userSpaceOnUse" color-interpolation-filters="sRGB"><feFlood flood-opacity="0" result="BackgroundImageFix" id="feFlood10"/><feColorMatrix in="SourceAlpha" values="0 0 0 0 0 0 0 0 0 0 0 0 0 0 0 0 0 0 127 0" id="feColorMatrix12"/><feOffset dy="8" id="feOffset14"/><feGaussianBlur stdDeviation="8" id="feGaussianBlur16"/><feColorMatrix values="0 0 0 0 0.929412 0 0 0 0 0.0588235 0 0 0 0 0.160784 0 0 0 0.24 0" id="feColorMatrix18"/><feBlend in2="BackgroundImageFix" result="effect1_dropShadow" id="feBlend20" mode="normal"/><feBlend in="SourceGraphic" in2="effect1_dropShadow" result="shape" id="feBlend22" mode="normal"/></filter></defs></svg>