<?xml version="1.0" encoding="UTF-8" standalone="no"?>
<svg
   xmlns:dc="http://purl.org/dc/elements/1.1/"
   xmlns:cc="http://creativecommons.org/ns#"
   xmlns:rdf="http://www.w3.org/1999/02/22-rdf-syntax-ns#"
   xmlns:svg="http://www.w3.org/2000/svg"
   xmlns="http://www.w3.org/2000/svg"
   style="fill:none"
   id="svg91"
   version="1.1"
   viewBox="0 0 144 144"
   height="144"
   width="144">
  <metadata
     id="metadata95">
    <rdf:RDF>
      <cc:Work
         rdf:about="">
        <dc:format>image/svg+xml</dc:format>
        <dc:type
           rdf:resource="http://purl.org/dc/dcmitype/StillImage" />
        <dc:title></dc:title>
      </cc:Work>
    </rdf:RDF>
  </metadata>
  <g
     style="filter:url(#filter0_d)"
     transform="translate(-14.915255,-7.3898304)"
     id="g4">
    <circle
       style="stroke:#cc1414;stroke-width:4;stroke-linecap:round;stroke-dasharray:2, 8"
       id="circle2"
       r="70"
       cy="80"
       cx="88" />
  </g>
  <circle
     style="fill:#000000"
     id="circle6"
     r="1.2338099"
     cy="71.344971"
     cx="66.24604" />
  <circle
     style="fill:#000000"
     id="circle8"
     r="1.2338099"
     cy="76.279572"
     cx="66.24604" />
  <circle
     style="fill:#000000"
     id="circle10"
     r="1.2338099"
     cy="66.40937"
     cx="71.181236" />
  <circle
     style="fill:#000000"
     id="circle12"
     r="1.2338099"
     cy="68.876167"
     cx="68.713737" />
  <circle
     style="fill:#000000"
     id="circle14"
     r="1.2338099"
     cy="73.811768"
     cx="68.713737" />
  <circle
     style="fill:#000000"
     id="circle16"
     r="1.2338099"
     cy="71.344971"
     cx="71.181236" />
  <circle
     style="fill:#000000"
     id="circle18"
     r="1.2338099"
     cy="76.279572"
     cx="71.181236" />
  <circle
     style="fill:#000000"
     id="circle20"
     r="1.2338099"
     cy="66.40937"
     cx="76.116539" />
  <circle
     style="fill:#000000"
     id="circle22"
     r="1.2338099"
     cy="68.876167"
     cx="73.648842" />
  <circle
     style="fill:#000000"
     id="circle24"
     r="1.2338099"
     cy="73.811768"
     cx="73.648842" />
  <circle
     style="fill:#000000"
     id="circle26"
     r="1.2338099"
     cy="71.344971"
     cx="76.116539" />
  <circle
     style="fill:#000000"
     id="circle28"
     r="1.2338099"
     cy="76.279572"
     cx="76.116539" />
  <circle
     style="fill:#000000"
     id="circle30"
     r="1.2338099"
     cy="68.876167"
     cx="78.584137" />
  <circle
     style="fill:#000000"
     id="circle32"
     r="1.2338099"
     cy="73.811768"
     cx="78.584137" />
  <circle
     style="fill:#000000"
     id="circle34"
     r="1.2338099"
     cy="71.344971"
     cx="81.051842" />
  <circle
     style="fill:#000000"
     id="circle36"
     r="1.2338099"
     cy="76.279572"
     cx="81.051842" />
  <path
     style="fill:#000000"
     id="path38"
     d="m 58.565945,60.89137 c -0.4454,-0.1307 -0.6985,-0.5634 -0.5906,-1.0095 0.108,-0.446 0.523,-0.6826 0.9684,-0.5518 2.0043,0.5883 3.833,-0.0693 4.0705,-1.0507 0.1079,-0.446 0.523,-0.6825 0.9683,-0.5518 0.4454,0.1307 0.6985,0.5634 0.5906,1.0095 -0.475,1.9627 -3.2181,2.9492 -6.0072,2.1543 z" />
  <path
     style="fill:#000000"
     id="path40"
     d="m 67.708445,59.96007 c -0.8773,3.6219 -5.2877,5.5219 -9.7931,4.2008 -2.9595,-0.8678 -5.4045,-2.9804 -6.3319,-5.4994 -0.2752,-0.7194 -0.8521,-1.267 -1.4812,-1.4042 l -17.7317,-4.0405 c -0.9657,-0.2122 -1.8519,-0.8505 -2.4088,-1.6762 -0.5128,-0.8126 -0.7178,-1.7243 -0.548,-2.6206 0.0107,-0.0442 0.0214,-0.0884 0.0321,-0.1325 0.214,-0.8834 0.7814,-1.6632 1.577,-2.1159 0.823,-0.4683 1.8362,-0.5496 2.7972,-0.2205 l 17.3507,6.1995 c 0.6518,0.2385 1.3726,0.095 1.9199,-0.4068 1.9437,-1.6771 4.9926,-2.155 7.9795,-1.3028 4.5663,1.3626 7.5156,5.3971 6.6383,9.0191 z m -6.9686,-7.4602 c -2.4736,-0.7253 -4.9831,-0.3258 -6.5548,0.9873 -0.9803,0.8243 -2.2785,1.1059 -3.4497,0.6679 l -17.3506,-6.1996 c -0.5026,-0.171 -1.0313,-0.1368 -1.5144,0.1 -0.4664,0.2654 -0.7775,0.6709 -0.8618,1.2139 -0.0902,0.4702 0.0069,0.9481 0.3021,1.3895 0.312,0.4699 0.816,0.8306 1.3735,0.9704 l 17.7209,4.0847 c 1.2308,0.2899 2.2401,1.2009 2.6901,2.4682 0.7419,2.0153 2.7652,3.7203 5.2388,4.4457 3.6662,1.075 7.1987,-0.3255 7.8727,-3.1082 0.6299,-2.7957 -1.8007,-5.9447 -5.4668,-7.0198 z" />
  <path
     style="stroke:#000000;stroke-width:1.29999995"
     id="path42"
     d="m 96.855745,47.08677 -12.0512,12.0509 -2.7115,2.7114 6.6147,1.1919 15.313005,15.3129 12.051,-12.0509 -6.906,-6.9058 1.599,-1.5985 c 0.781,-0.7811 0.781,-2.0474 0,-2.8284 l -9.482,-9.482 c -0.781,-0.7811 -2.048005,-0.7811 -2.829005,0 z" />
  <path
     style="stroke:#000000;stroke-width:0.80000001"
     id="path44"
     d="m 113.53075,63.50177 -12.25,12.2505" />
  <path
     style="stroke:#000000;stroke-width:0.80000001"
     id="path46"
     d="m 95.063745,48.87807 c -1.513,-0.7771 -3.354,-0.4884 -4.557,0.7145 l -3.375,3.3752 c -1.203,1.2028 -1.492,3.0446 -0.715,4.5579 v 0 z" />
  <rect
     style="stroke:#000000;stroke-width:0.80000001"
     x="-37.012497"
     id="rect48"
     transform="matrix(-0.70711728,0.70709628,0.70711728,0.70709628,0,0)"
     rx="0.59999979"
     height="10.070396"
     width="2.5970089"
     y="105.57877" />
  <rect
     style="stroke:#000000;stroke-width:0.80000001"
     x="-26.822807"
     id="rect50"
     transform="matrix(-0.70710678,0.70710678,0.70710678,0.70710678,0,0)"
     rx="2.3176107"
     height="15.505705"
     width="4.6352215"
     y="105.57975" />
  <path
     style="stroke:#000000;stroke-width:0.80000001"
     id="path52"
     d="m 92.661745,60.88777 1.922,-1.9216" />
  <path
     style="stroke:#000000;stroke-width:0.80000001"
     id="path54"
     d="m 94.103745,62.32967 1.921,-1.9216" />
  <path
     style="stroke:#000000;stroke-width:0.80000001"
     id="path56"
     d="m 95.544745,63.77107 1.921,-1.9216" />
  <path
     style="stroke:#000000;stroke-width:0.80000001"
     id="path58"
     d="m 96.985745,65.21147 1.922,-1.9216" />
  <path
     style="stroke:#000000;stroke-width:0.80000001"
     id="path60"
     d="m 98.426745,66.65287 1.922005,-1.9216" />
  <path
     style="stroke:#000000;stroke-width:0.80000001"
     id="path62"
     d="m 99.867747,68.09477 1.922003,-1.9216" />
  <path
     style="fill:#000000"
     id="path64"
     d="m 100.54775,86.23547 c -1.722005,-1.4767 -3.938005,-2.092 -6.214005,-1.7844 -0.246,0.0616 -0.492,0.0616 -0.739,0.1231 -0.123,-0.9845 -0.246,-1.969 -0.369,-2.9535 -0.184,-1.1691 -1.23,-2.0305 -2.399,-2.0305 h -33.3502 c -1.1691,0 -2.2151,0.8614 -2.3997,2.0305 -0.3692,2.2766 -0.6153,4.6148 -0.6153,6.953 0,11.0145 4.1841,20.9205 10.9525,25.7195 0.8614,0.616 1.9074,0.923 2.9535,0.923 h 11.4447 c 1.1076,0 2.0921,-0.307 2.9535,-0.923 3.261,-2.338 5.968,-5.907 7.814,-10.214 3.631,-1.169 8.246,-3.076 10.215005,-5.414 1.661,-1.969 2.522,-4.369 2.461,-6.6458 0.061,-2.2151 -0.985,-4.3071 -2.708,-5.7839 z m -19.504905,25.5967 c -0.3076,0.246 -0.7383,0.369 -1.1691,0.369 h -11.4447 c -0.4307,0 -0.8614,-0.123 -1.1691,-0.369 -5.8454,-4.184 -9.6604,-13.352 -9.6604,-23.2585 0,-1.969 0.1231,-3.9995 0.4308,-5.907 h 32.2424 c 0.307,1.969 0.43,3.938 0.43,5.907 0,9.9685 -3.753,19.0745 -9.6599,23.2585 z m 17.5359,-15.075 c -1.107,1.354 -3.753,2.646 -6.522,3.63 1.108,-3.63 1.723,-7.629 1.723,-11.8135 0,-0.3077 0,-0.5538 0,-0.8614 1.661,-0.5538 3.507,-0.2462 4.861,0.8614 1.108002,0.923 1.723005,2.1536 1.723005,3.5688 0,1.5997 -0.615003,3.1997 -1.785005,4.6147 z" />
  <path
     style="fill:#000000"
     id="path66"
     d="m 78.670245,109.74117 c 0.3498,0 0.6996,-0.101 0.9494,-0.301 2.8148,-2.001 5.0275,-5.382 6.3751,-9.476 0.395,-1.198 0.715,-2.457 0.955,-3.76 h -25.8429 c 0.2435,1.302 0.568,2.561 0.9663,3.76 1.3578,4.088 3.5727,7.479 6.3533,9.476 0.2499,0.2 0.5996,0.301 0.9494,0.301 z" />
  <path
     style="fill:#000000"
     id="path68"
     d="m 57.538045,117.66217 c -0.5523,0 -1,0.447 -1,1 0,0.552 0.4477,1 1,1 z m 33.2267,2 c 0.552,0 1,-0.448 1,-1 0,-0.553 -0.448,-1 -1,-1 z m -33.2267,0 h 33.2267 v -2 h -33.2267 z" />
  <path
     style="fill:#000000"
     id="path70"
     d="m 38.565545,28.88287 h -2.5 l 2.5,4.3637 -2.5909,4.3636 h 2.5 l 1.6932,-3.017 1.7216,3.017 h 2.4716 l -2.5966,-4.3636 2.5284,-4.3637 h -2.483 l -1.642,3.0512 z m 12.2046,-2.9091 h -2.3125 l -2.8807,1.8239 v 2.1818 l 2.6648,-1.6704 h 0.0681 v 9.3011 h 2.4603 z" />
  <path
     style="fill:#000000"
     id="path72"
     d="m 78.370945,25.78067 c -2.6023,-0.0114 -4.3579,1.6931 -4.3466,4.0568 -0.0113,2.1818 1.5114,3.7557 3.5739,3.7557 1.2784,0 2.4148,-0.6194 2.9318,-1.6421 h 0.0796 c -0.0057,2.3068 -0.8069,3.7102 -2.3239,3.7102 -0.8921,0 -1.5341,-0.4886 -1.7216,-1.3352 h -2.4261 c 0.2272,1.9602 1.8181,3.4432 4.1477,3.4432 2.8807,0 4.7273,-2.3296 4.7329,-6.2784 -0.0056,-4.2557 -2.2556,-5.7046 -4.6477,-5.7102 z m 0.0171,1.9318 c 1.1306,0 1.9659,0.9204 1.9772,2.0454 -0.0113,1.1307 -0.875,2.0512 -2,2.0512 -1.1363,0 -1.9659,-0.8864 -1.9545,-2.0398 -0.0114,-1.1648 0.8352,-2.0568 1.9773,-2.0568 z m 6.3352,9.8977 h 8.2955 v -2.0114 h -4.886 v -0.0795 l 1.698,-1.6648 c 2.392,-2.1818 3.035,-3.2727 3.035,-4.5966 0,-2.017 -1.648,-3.4432 -4.143,-3.4432 -2.443,0 -4.1188,1.4603 -4.1131,3.7444 h 2.3351 c -0.006,-1.1137 0.699,-1.7955 1.761,-1.7955 1.023,0 1.785,0.6364 1.785,1.6591 0,0.9261 -0.569,1.5625 -1.625,2.5795 l -4.1425,3.8353 z m 12.8115,-6.1307 c 1.545,0 2.789005,-1.25 2.789005,-2.7898 0,-1.5454 -1.244005,-2.7954 -2.789005,-2.7954 -1.54,0 -2.79,1.25 -2.79,2.7954 0,1.5398 1.25,2.7898 2.79,2.7898 z m 0,-1.6136 c -0.648,0 -1.177,-0.5284 -1.177,-1.1762 0,-0.6534 0.529,-1.1818 1.177,-1.1818 0.653,0 1.176,0.5284 1.176,1.1818 0,0.6478 -0.523,1.1762 -1.176,1.1762 z m 14.664005,0.1818 c -0.324,-2.6875 -2.358,-4.233 -5.051,-4.233 -3.074,0 -5.42,2.1705 -5.42,5.9773 0,3.7955 2.307,5.9773 5.42,5.9773 2.983,0 4.784,-1.983 5.051,-4.125 l -2.488,-0.0114 c -0.233,1.2443 -1.211,1.9603 -2.523,1.9603 -1.767,0 -2.966,-1.3125 -2.966,-3.8012 0,-2.4204 1.182,-3.8011 2.983,-3.8011 1.347,0 2.318,0.7784 2.506,2.0568 z" />
  <defs
     id="defs89">
    <filter
       style="color-interpolation-filters:sRGB"
       filterUnits="userSpaceOnUse"
       height="176"
       width="176"
       y="0"
       x="0"
       id="filter0_d">
      <feFlood
         id="feFlood74"
         result="BackgroundImageFix"
         flood-opacity="0" />
      <feColorMatrix
         id="feColorMatrix76"
         values="0 0 0 0 0 0 0 0 0 0 0 0 0 0 0 0 0 0 127 0"
         type="matrix"
         in="SourceAlpha" />
      <feOffset
         id="feOffset78"
         dy="8" />
      <feGaussianBlur
         id="feGaussianBlur80"
         stdDeviation="8" />
      <feColorMatrix
         id="feColorMatrix82"
         values="0 0 0 0 0.929412 0 0 0 0 0.0588235 0 0 0 0 0.160784 0 0 0 0.24 0"
         type="matrix" />
      <feBlend
         id="feBlend84"
         result="effect1_dropShadow"
         in2="BackgroundImageFix"
         mode="normal" />
      <feBlend
         id="feBlend86"
         result="shape"
         in2="effect1_dropShadow"
         in="SourceGraphic"
         mode="normal" />
    </filter>
  </defs>
</svg>
