<svg width="35" height="40" viewBox="0 0 35 40" fill="none" xmlns="http://www.w3.org/2000/svg">
<path d="M34.6463 24.3161C34.3895 23.8706 34.0048 23.5115 33.5415 23.2849C33.1487 23.087 32.7126 22.9894 32.2724 23.0009C31.8323 23.0124 31.4019 23.1327 31.0201 23.351L24.3609 27.1725C24.253 26.6044 23.9595 26.0877 23.5262 25.7024C23.0358 25.2771 22.4072 25.0426 21.7566 25.0422H17.6686C17.5814 25.0423 17.495 25.0253 17.4144 24.9921C17.3337 24.9589 17.2605 24.9102 17.1988 24.8488L17.0369 24.6877C16.7298 24.3806 16.3646 24.1372 15.9623 23.9714C15.5601 23.8056 15.1288 23.7208 14.6933 23.722H9.59414C9.49394 23.722 9.39508 23.7286 9.26237 23.7385C8.50023 23.8138 7.78778 24.1492 7.24591 24.6877L5.50681 26.4193L4.88774 25.8034C4.76331 25.6796 4.59456 25.6101 4.41862 25.6101C4.24268 25.6101 4.07394 25.6796 3.94951 25.8034L0.194604 29.5312C0.132911 29.5925 0.0839702 29.6653 0.0505787 29.7455C0.0171871 29.8256 0 29.9115 0 29.9983C0 30.085 0.0171871 30.1709 0.0505787 30.2511C0.0839702 30.3312 0.132911 30.404 0.194604 30.4653L9.57622 39.8064C9.63785 39.8678 9.71103 39.9165 9.79158 39.9497C9.87213 39.9829 9.95847 40 10.0457 40C10.1329 40 10.2192 39.9829 10.2998 39.9497C10.3803 39.9165 10.4535 39.8678 10.5151 39.8064L14.2707 36.07C14.3951 35.9462 14.465 35.7783 14.465 35.6032C14.465 35.4282 14.3951 35.2603 14.2707 35.1365L13.7445 34.613L13.8819 34.4764C14.0065 34.3531 14.1752 34.284 14.351 34.2843H21.7161C22.299 34.2856 22.8717 34.132 23.3749 33.8393L33.6729 27.9244C34.0784 27.6947 34.4151 27.3616 34.6483 26.9594C34.8815 26.5573 35.0029 26.1006 34.9999 25.6364C35 25.1731 34.878 24.7179 34.6463 24.3161ZM10.0453 38.4075L1.60195 30.0006L4.41796 27.2029L12.8627 35.6046L10.0453 38.4075ZM33.01 26.7811L22.7068 32.6999C22.4063 32.8741 22.0645 32.9653 21.7168 32.964H14.3516C14.09 32.9632 13.8308 33.014 13.5891 33.1136C13.3474 33.2132 13.128 33.3596 12.9436 33.5443L12.8063 33.6809L6.44503 27.3528L8.18547 25.6212C8.50766 25.3005 8.93109 25.1 9.38446 25.0535C9.45745 25.0475 9.52579 25.0422 9.59414 25.0422H14.6933C14.9544 25.0416 15.213 25.0925 15.4542 25.1918C15.6954 25.2912 15.9145 25.4371 16.0987 25.6212L16.2606 25.7823C16.445 25.9669 16.6644 26.1133 16.9061 26.2129C17.1478 26.3125 17.407 26.3634 17.6686 26.3625H21.7566C22.0841 26.362 22.4008 26.4793 22.6484 26.6926C22.8978 26.91 23.0544 27.2139 23.0863 27.5422C23.1079 27.7488 23.0776 27.9575 22.9981 28.1495C22.9372 28.3266 22.8354 28.4869 22.7008 28.6176C22.5779 28.7404 22.4318 28.8377 22.2709 28.9039C22.1099 28.97 21.9374 29.0038 21.7632 29.0031H17.3972C17.2212 29.0031 17.0525 29.0727 16.928 29.1965C16.8036 29.3203 16.7337 29.4882 16.7337 29.6633C16.7337 29.8383 16.8036 30.0063 16.928 30.1301C17.0525 30.2539 17.2212 30.3234 17.3972 30.3234H21.7632C22.1118 30.3241 22.4571 30.2561 22.7791 30.1232C23.1011 29.9902 23.3934 29.7951 23.639 29.5491C23.8544 29.3369 24.0299 29.088 24.1572 28.8143L31.6803 24.493C31.8732 24.3841 32.0903 24.3247 32.312 24.3201C32.5337 24.3155 32.753 24.3658 32.9503 24.4666C33.1791 24.5782 33.3693 24.7552 33.4964 24.9749C33.6122 25.1759 33.6733 25.4034 33.6736 25.6351C33.6752 25.8675 33.6146 26.0962 33.498 26.2976C33.3813 26.499 33.2129 26.6659 33.01 26.7811Z" fill="black"/>
<path d="M8.65789 21H32.3421C32.5166 21 32.6839 20.9309 32.8073 20.8078C32.9307 20.6847 33 20.5178 33 20.3438V0.65625C33 0.482202 32.9307 0.315282 32.8073 0.192211C32.6839 0.0691404 32.5166 0 32.3421 0H8.65789C8.48341 0 8.31607 0.0691404 8.19269 0.192211C8.06931 0.315282 8 0.482202 8 0.65625V20.3438C8 20.5178 8.06931 20.6847 8.19269 20.8078C8.31607 20.9309 8.48341 21 8.65789 21ZM22 1.3125V6.5625H19V1.3125H22ZM9.31579 1.3125H17.8684V7.21875C17.8684 7.3928 17.9377 7.55972 18.0611 7.68279C18.1845 7.80586 18.3518 7.875 18.5263 7.875H22.4737C22.6482 7.875 22.8155 7.80586 22.9389 7.68279C23.0623 7.55972 23.1316 7.3928 23.1316 7.21875V1.3125H31.6842V19.6875H9.31579V1.3125Z" fill="black"/>
<path d="M15.375 13H11.625C11.4592 13 11.3003 13.0527 11.1831 13.1464C11.0658 13.2402 11 13.3674 11 13.5C11 13.6326 11.0658 13.7598 11.1831 13.8536C11.3003 13.9473 11.4592 14 11.625 14H15.375C15.5408 14 15.6997 13.9473 15.8169 13.8536C15.9342 13.7598 16 13.6326 16 13.5C16 13.3674 15.9342 13.2402 15.8169 13.1464C15.6997 13.0527 15.5408 13 15.375 13Z" fill="black"/>
<path d="M15.375 15H11.625C11.4592 15 11.3003 15.0527 11.1831 15.1464C11.0658 15.2402 11 15.3674 11 15.5C11 15.6326 11.0658 15.7598 11.1831 15.8536C11.3003 15.9473 11.4592 16 11.625 16H15.375C15.5408 16 15.6997 15.9473 15.8169 15.8536C15.9342 15.7598 16 15.6326 16 15.5C16 15.3674 15.9342 15.2402 15.8169 15.1464C15.6997 15.0527 15.5408 15 15.375 15Z" fill="black"/>
<path d="M15.375 17H11.625C11.4592 17 11.3003 17.0527 11.1831 17.1464C11.0658 17.2402 11 17.3674 11 17.5C11 17.6326 11.0658 17.7598 11.1831 17.8536C11.3003 17.9473 11.4592 18 11.625 18H15.375C15.5408 18 15.6997 17.9473 15.8169 17.8536C15.9342 17.7598 16 17.6326 16 17.5C16 17.3674 15.9342 17.2402 15.8169 17.1464C15.6997 17.0527 15.5408 17 15.375 17Z" fill="black"/>
<path d="M17.6667 13H17.3333C17.2449 13 17.1601 13.0527 17.0976 13.1464C17.0351 13.2402 17 13.3674 17 13.5C17 13.6326 17.0351 13.7598 17.0976 13.8536C17.1601 13.9473 17.2449 14 17.3333 14H17.6667C17.7551 14 17.8399 13.9473 17.9024 13.8536C17.9649 13.7598 18 13.6326 18 13.5C18 13.3674 17.9649 13.2402 17.9024 13.1464C17.8399 13.0527 17.7551 13 17.6667 13Z" fill="black"/>
<path d="M17.6667 15H17.3333C17.2449 15 17.1601 15.0527 17.0976 15.1464C17.0351 15.2402 17 15.3674 17 15.5C17 15.6326 17.0351 15.7598 17.0976 15.8536C17.1601 15.9473 17.2449 16 17.3333 16H17.6667C17.7551 16 17.8399 15.9473 17.9024 15.8536C17.9649 15.7598 18 15.6326 18 15.5C18 15.3674 17.9649 15.2402 17.9024 15.1464C17.8399 15.0527 17.7551 15 17.6667 15Z" fill="black"/>
<path d="M17.6667 17H17.3333C17.2449 17 17.1601 17.0527 17.0976 17.1464C17.0351 17.2402 17 17.3674 17 17.5C17 17.6326 17.0351 17.7598 17.0976 17.8536C17.1601 17.9473 17.2449 18 17.3333 18H17.6667C17.7551 18 17.8399 17.9473 17.9024 17.8536C17.9649 17.7598 18 17.6326 18 17.5C18 17.3674 17.9649 17.2402 17.9024 17.1464C17.8399 17.0527 17.7551 17 17.6667 17Z" fill="black"/>
<path d="M22.6667 13.4H29.3333C29.4041 13.4 29.4719 13.4281 29.5219 13.4781C29.5719 13.5281 29.6 13.5959 29.6 13.6667V17.3334C29.6 17.4041 29.5719 17.4719 29.5219 17.522C29.4719 17.572 29.4041 17.6001 29.3333 17.6001H22.6667C22.5959 17.6001 22.5281 17.572 22.4781 17.522C22.4281 17.4719 22.4 17.4041 22.4 17.3334V13.6667C22.4 13.5959 22.4281 13.5281 22.4781 13.4781C22.5281 13.4281 22.5959 13.4 22.6667 13.4Z" stroke="black" stroke-width="0.8"/>
</svg>
