<svg width="30" height="40" viewBox="0 0 30 40" fill="none" xmlns="http://www.w3.org/2000/svg">
<path d="M29.049 39.25H0.955726C0.945981 39.2467 0.916569 39.2322 0.874883 39.1781C0.809436 39.093 0.75 38.9474 0.75 38.7644V1.23558C0.75 1.05255 0.809436 0.906973 0.874883 0.821938C0.91657 0.767776 0.945981 0.753294 0.955727 0.75H29.0443C29.054 0.753294 29.0834 0.767775 29.1251 0.821939C29.1906 0.906974 29.25 1.05255 29.25 1.23558V38.7479C29.25 38.9482 29.1886 39.0983 29.1258 39.1813C29.0955 39.2214 29.0703 39.2393 29.0584 39.2459C29.0526 39.2491 29.0496 39.2499 29.0493 39.25C29.0492 39.25 29.0492 39.25 29.0492 39.25C29.0492 39.25 29.0491 39.25 29.049 39.25ZM0.959243 39.2508C0.95922 39.2509 0.958359 39.2508 0.956709 39.2503C0.958441 39.2505 0.959266 39.2508 0.959243 39.2508ZM0.959243 0.749161C0.959264 0.74924 0.958408 0.749502 0.956615 0.749713C0.958326 0.749188 0.959223 0.749082 0.959243 0.749161ZM29.0408 0.749161C29.0408 0.749083 29.0417 0.749189 29.0434 0.749713C29.0416 0.749502 29.0407 0.749239 29.0408 0.749161Z" stroke="black" stroke-width="1.5"/>
<path d="M25.7552 20.7001H4.49629C4.16559 20.7001 3.90576 20.4352 3.90576 20.098V13.7759C3.90576 13.4388 4.16559 13.1738 4.49629 13.1738H25.7552C26.0858 13.1738 26.3457 13.4388 26.3457 13.7759V20.098C26.3457 20.4352 26.0858 20.7001 25.7552 20.7001ZM5.08681 19.4959H25.1646V14.378H5.08681V19.4959Z" fill="black"/>
<path d="M22.1293 18.1956C21.9876 18.1956 21.8577 18.1474 21.7396 18.0511L20.1924 16.6783C19.9444 16.4615 19.9208 16.0762 20.1334 15.8233C20.346 15.5704 20.7239 15.5463 20.9719 15.7631L22.1293 16.7867L23.2513 15.7631C23.4994 15.5463 23.8655 15.5584 24.0899 15.8113C24.3025 16.0642 24.2907 16.4375 24.0426 16.6663L22.5309 18.0391C22.4128 18.1474 22.2711 18.1956 22.1293 18.1956Z" fill="black"/>
<path d="M25.7552 29.0087H4.49629C4.16559 29.0087 3.90576 28.7438 3.90576 28.4066V22.0845C3.90576 21.7473 4.16559 21.4824 4.49629 21.4824H25.7552C26.0858 21.4824 26.3457 21.7473 26.3457 22.0845V28.4066C26.3457 28.7438 26.0858 29.0087 25.7552 29.0087ZM5.08681 27.8045H25.1646V22.6866H5.08681V27.8045Z" fill="black"/>
<path d="M25.7552 12.3427H4.49629C4.16559 12.3427 3.90576 12.0778 3.90576 11.7406V5.41851C3.90576 5.08133 4.16559 4.81641 4.49629 4.81641H25.7552C26.0858 4.81641 26.3457 5.08133 26.3457 5.41851V11.7406C26.3457 12.0778 26.0858 12.3427 25.7552 12.3427ZM5.08681 11.1385H25.1646V6.02061H5.08681V11.1385Z" fill="black"/>
<path d="M22.4966 37.1381L7.50347 37.138C5.51931 37.138 3.91309 35.4882 3.91309 33.4772C3.91309 31.4541 5.53112 29.8164 7.50347 29.8164L22.4966 29.8166C24.4808 29.8166 26.087 31.4663 26.087 33.4773C26.087 35.4884 24.4808 37.1381 22.4966 37.1381ZM7.50347 31.0086C6.16889 31.0086 5.09413 32.1164 5.09413 33.4651C5.09413 34.8259 6.1807 35.9217 7.50347 35.9217L22.4966 35.9219C23.8312 35.9219 24.9059 34.814 24.9059 33.4653C24.9059 32.1046 23.8194 31.0087 22.4966 31.0087L7.50347 31.0086Z" fill="black"/>
<path d="M18.2317 17.6056H6.97627C6.64557 17.6056 6.38574 17.3406 6.38574 17.0035C6.38574 16.6663 6.64557 16.4014 6.97627 16.4014H18.2317C18.5624 16.4014 18.8222 16.6663 18.8222 17.0035C18.8222 17.3406 18.5624 17.6056 18.2317 17.6056Z" fill="black"/>
<path d="M23.1805 25.8185H7.07099C6.7403 25.8185 6.48047 25.5535 6.48047 25.2164C6.48047 24.8792 6.7403 24.6143 7.07099 24.6143H23.1923C23.523 24.6143 23.7828 24.8792 23.7828 25.2164C23.7828 25.5535 23.5112 25.8185 23.1805 25.8185Z" fill="black"/>
<path d="M23.1805 9.15147H7.07099C6.7403 9.15147 6.48047 8.88655 6.48047 8.54937C6.48047 8.21219 6.7403 7.94727 7.07099 7.94727H23.1923C23.523 7.94727 23.7828 8.21219 23.7828 8.54937C23.7828 8.88655 23.5112 9.15147 23.1805 9.15147Z" fill="black"/>
</svg>
