<svg width="33" height="37" viewBox="0 0 33 37" fill="none" xmlns="http://www.w3.org/2000/svg">
<path d="M16.5 0C12.1255 0.00509669 7.93153 1.77864 4.83826 4.93156C1.74499 8.08448 0.00500026 12.3593 0 16.8182V21.8636C0.000993515 22.7554 0.34899 23.6104 0.967645 24.241C1.5863 24.8716 2.42509 25.2263 3.3 25.2273C3.90311 25.2246 4.49372 25.0519 5.00639 24.7281C5.56665 30.7465 10.2967 37 16.5 37C20.4864 37 23.8551 34.411 25.9091 30.9679C28.2315 30.0486 30.3394 28.2617 31.2579 24.8102C31.7824 24.5253 32.2213 24.1009 32.528 23.582C32.8347 23.0632 32.9979 22.4694 33 21.8636V16.8182C32.995 12.3593 31.255 8.08448 28.1617 4.93156C25.0685 1.77864 20.8745 0.00509669 16.5 0ZM16.5 1.68182C20.2238 1.68744 23.8097 3.11772 26.5483 5.68961C29.2868 8.2615 30.9784 11.7876 31.2881 15.57C30.7845 15.2749 30.2115 15.1252 29.6307 15.137C29.0499 15.1488 28.4832 15.3216 27.9915 15.6368C27.7043 12.7337 26.3698 10.0428 24.2465 8.08583C22.1233 6.12886 19.3627 5.04532 16.5002 5.04532C13.6376 5.04532 10.877 6.12886 8.7538 8.08583C6.63057 10.0428 5.29599 12.7337 5.00886 15.6368C4.51712 15.3216 3.95043 15.1488 3.36963 15.137C2.78883 15.1252 2.21585 15.2749 1.7122 15.57C2.02195 11.7876 3.71343 8.26161 6.45191 5.68973C9.19039 3.11785 12.7763 1.68752 16.5 1.68182ZM25.8951 13.6566C20.7779 14.7876 16.2004 13.6419 12.9583 10.3373C12.8036 10.1796 12.5938 10.091 12.375 10.091C12.1562 10.091 11.9464 10.1796 11.7917 10.3373C10.4051 11.75 9.17099 12.989 7.21743 13.3435C7.92294 11.3771 9.21183 9.6835 10.905 8.49802C12.5982 7.31253 14.6116 6.69403 16.6655 6.72844C18.7194 6.76284 20.7117 7.44846 22.3658 8.69002C24.0198 9.93158 25.2534 11.6674 25.8951 13.6564V13.6566ZM3.3 23.5455C2.86253 23.545 2.4431 23.3677 2.13376 23.0524C1.82442 22.7371 1.65044 22.3095 1.65 21.8636V18.5C1.65 18.054 1.82384 17.6262 2.13327 17.3108C2.44271 16.9954 2.86239 16.8182 3.3 16.8182C3.73761 16.8182 4.15729 16.9954 4.46673 17.3108C4.77616 17.6262 4.95 18.054 4.95 18.5V21.8636C4.94956 22.3095 4.77558 22.7371 4.46624 23.0524C4.1569 23.3677 3.73747 23.545 3.3 23.5455ZM16.5 35.3182C10.9248 35.3182 6.6 28.99 6.6 23.5455V16.8182C6.60315 16.2394 6.65521 15.662 6.75559 15.0923C9.32064 14.8764 10.9814 13.5018 12.3895 12.102C15.0826 14.5392 18.5759 15.8558 22.1767 15.7908C23.556 15.771 24.9293 15.6015 26.2733 15.2852C26.3538 15.7922 26.3961 16.3046 26.4 16.8182V23.5455C26.3612 25.6641 25.8037 27.7393 24.778 29.5825C23.1124 30.0782 21.3821 30.3103 19.6474 30.2708C19.4776 29.7808 19.1633 29.3563 18.7475 29.0555C18.3317 28.7548 17.8348 28.5925 17.325 28.5909H15.675C15.0186 28.5909 14.3891 28.8567 13.9249 29.3298C13.4608 29.8029 13.2 30.4446 13.2 31.1136C13.2 31.7827 13.4608 32.4244 13.9249 32.8975C14.3891 33.3706 15.0186 33.6364 15.675 33.6364H17.325C17.8355 33.6348 18.3329 33.472 18.749 33.1705C19.1651 32.869 19.4793 32.4436 19.6485 31.9527C20.8981 31.9573 22.146 31.8597 23.3802 31.6608C21.6145 33.8197 19.2075 35.3182 16.5 35.3182ZM18.15 31.1136C18.1497 31.3366 18.0627 31.5503 17.908 31.7079C17.7534 31.8656 17.5437 31.9543 17.325 31.9545H15.675C15.4562 31.9545 15.2464 31.8659 15.0916 31.7082C14.9369 31.5505 14.85 31.3367 14.85 31.1136C14.85 30.8906 14.9369 30.6767 15.0916 30.519C15.2464 30.3613 15.4562 30.2727 15.675 30.2727H17.325C17.5437 30.273 17.7534 30.3617 17.908 30.5193C18.0627 30.677 18.1497 30.8907 18.15 31.1136ZM27.1755 28.3256C27.5995 27.1675 27.8745 25.9582 27.9936 24.7281C28.4241 24.9938 28.909 25.1544 29.4105 25.1974C28.9708 26.4346 28.1958 27.5193 27.1755 28.3256ZM31.35 21.8636C31.35 22.3097 31.1762 22.7375 30.8667 23.0529C30.5573 23.3683 30.1376 23.5455 29.7 23.5455C29.2624 23.5455 28.8427 23.3683 28.5333 23.0529C28.2238 22.7375 28.05 22.3097 28.05 21.8636V18.5C28.05 18.054 28.2238 17.6262 28.5333 17.3108C28.8427 16.9954 29.2624 16.8182 29.7 16.8182C30.1376 16.8182 30.5573 16.9954 30.8667 17.3108C31.1762 17.6262 31.35 18.054 31.35 18.5V21.8636Z" fill="black"/>
</svg>
