<svg width="136" height="136" viewBox="0 0 136 136" fill="none" xmlns="http://www.w3.org/2000/svg">
<g filter="url(#filter0_d)">
<circle cx="68" cy="60" r="50" stroke="#CC1414" stroke-width="4" stroke-linecap="round" stroke-dasharray="2 8"/>
</g>
<path d="M82.049 87.25H53.9557C53.946 87.2467 53.9166 87.2322 53.8749 87.1781C53.8094 87.093 53.75 86.9474 53.75 86.7644V49.2356C53.75 49.0526 53.8094 48.907 53.8749 48.8219C53.9166 48.7678 53.946 48.7533 53.9557 48.75H82.0443C82.054 48.7533 82.0834 48.7678 82.1251 48.8219C82.1906 48.907 82.25 49.0526 82.25 49.2356V86.7479C82.25 86.9482 82.1886 87.0983 82.1258 87.1813C82.0955 87.2214 82.0703 87.2393 82.0584 87.2459C82.0526 87.2491 82.0496 87.2499 82.0493 87.25C82.0492 87.25 82.0492 87.25 82.0492 87.25C82.0492 87.25 82.0491 87.25 82.049 87.25ZM53.9592 87.2508C53.9592 87.2509 53.9584 87.2508 53.9567 87.2503C53.9584 87.2505 53.9593 87.2508 53.9592 87.2508ZM53.9592 48.7492C53.9593 48.7492 53.9584 48.7495 53.9566 48.7497C53.9583 48.7492 53.9592 48.7491 53.9592 48.7492ZM82.0408 48.7492C82.0408 48.7491 82.0417 48.7492 82.0434 48.7497C82.0416 48.7495 82.0407 48.7492 82.0408 48.7492Z" stroke="black" stroke-width="1.5"/>
<path d="M78.755 68.7006H57.4962C57.1655 68.7006 56.9056 68.4357 56.9056 68.0985V61.7764C56.9056 61.4392 57.1655 61.1743 57.4962 61.1743H78.755C79.0857 61.1743 79.3456 61.4392 79.3456 61.7764V68.0985C79.3456 68.4357 79.0857 68.7006 78.755 68.7006ZM58.0867 67.4964H78.1645V62.3785H58.0867V67.4964Z" fill="black"/>
<path d="M75.1293 66.1956C74.9876 66.1956 74.8577 66.1474 74.7396 66.0511L73.1924 64.6783C72.9444 64.4615 72.9208 64.0762 73.1334 63.8233C73.346 63.5704 73.7239 63.5463 73.9719 63.7631L75.1293 64.7867L76.2513 63.7631C76.4994 63.5463 76.8655 63.5584 77.0899 63.8113C77.3025 64.0642 77.2907 64.4375 77.0426 64.6663L75.5309 66.0391C75.4128 66.1474 75.2711 66.1956 75.1293 66.1956Z" fill="black"/>
<path d="M78.755 77.0092H57.4962C57.1655 77.0092 56.9056 76.7443 56.9056 76.4071V70.085C56.9056 69.7478 57.1655 69.4829 57.4962 69.4829H78.755C79.0857 69.4829 79.3456 69.7478 79.3456 70.085V76.4071C79.3456 76.7443 79.0857 77.0092 78.755 77.0092ZM58.0867 75.805H78.1645V70.6871H58.0867V75.805Z" fill="black"/>
<path d="M78.755 60.3427H57.4962C57.1655 60.3427 56.9056 60.0778 56.9056 59.7406V53.4185C56.9056 53.0813 57.1655 52.8164 57.4962 52.8164H78.755C79.0857 52.8164 79.3456 53.0813 79.3456 53.4185V59.7406C79.3456 60.0778 79.0857 60.3427 78.755 60.3427ZM58.0867 59.1385H78.1645V54.0206H58.0867V59.1385Z" fill="black"/>
<path d="M75.4966 85.1376L60.5035 85.1375C58.5193 85.1375 56.9131 83.4877 56.9131 81.4767C56.9131 79.4536 58.5311 77.8159 60.5035 77.8159L75.4966 77.8161C77.4808 77.8161 79.087 79.4658 79.087 81.4769C79.087 83.4879 77.4808 85.1376 75.4966 85.1376ZM60.5035 79.0081C59.1689 79.0081 58.0941 80.116 58.0941 81.4647C58.0941 82.8254 59.1807 83.9212 60.5035 83.9212L75.4966 83.9214C76.8312 83.9214 77.9059 82.8135 77.9059 81.4648C77.9059 80.1041 76.8194 79.0082 75.4966 79.0082L60.5035 79.0081Z" fill="black"/>
<path d="M71.2318 65.6056H59.9764C59.6457 65.6056 59.3859 65.3406 59.3859 65.0035C59.3859 64.6663 59.6457 64.4014 59.9764 64.4014H71.2318C71.5625 64.4014 71.8223 64.6663 71.8223 65.0035C71.8223 65.3406 71.5625 65.6056 71.2318 65.6056Z" fill="black"/>
<path d="M76.1804 73.8185H60.0709C59.7402 73.8185 59.4803 73.5535 59.4803 73.2164C59.4803 72.8792 59.7402 72.6143 60.0709 72.6143H76.1922C76.5229 72.6143 76.7827 72.8792 76.7827 73.2164C76.7827 73.5535 76.5111 73.8185 76.1804 73.8185Z" fill="black"/>
<path d="M76.1804 57.152H60.0709C59.7402 57.152 59.4803 56.887 59.4803 56.5499C59.4803 56.2127 59.7402 55.9478 60.0709 55.9478H76.1922C76.5229 55.9478 76.7827 56.2127 76.7827 56.5499C76.7827 56.887 76.5111 57.152 76.1804 57.152Z" fill="black"/>
<defs>
<filter id="filter0_d" x="0" y="0" width="136" height="136" filterUnits="userSpaceOnUse" color-interpolation-filters="sRGB">
<feFlood flood-opacity="0" result="BackgroundImageFix"/>
<feColorMatrix in="SourceAlpha" type="matrix" values="0 0 0 0 0 0 0 0 0 0 0 0 0 0 0 0 0 0 127 0"/>
<feOffset dy="8"/>
<feGaussianBlur stdDeviation="8"/>
<feColorMatrix type="matrix" values="0 0 0 0 0.929412 0 0 0 0 0.0588235 0 0 0 0 0.160784 0 0 0 0.24 0"/>
<feBlend mode="normal" in2="BackgroundImageFix" result="effect1_dropShadow"/>
<feBlend mode="normal" in="SourceGraphic" in2="effect1_dropShadow" result="shape"/>
</filter>
</defs>
</svg>
