<svg width="136" height="136" fill="none" xmlns="http://www.w3.org/2000/svg"><g filter="url(#filter0_d)"><circle cx="68" cy="60" r="50" stroke="#CC1414" stroke-width="4" stroke-linecap="round" stroke-dasharray="2 8"/></g><path d="M82 87.3H54l-.1-.1-.1-.4V49.2v-.4h28.3l.2.4v37.5l-.2.5s0 0 0 0 0 0 0 0 0 0 0 0 0 0 0 0zm-28 0s0 0 0 0 0 0 0 0zm0-38.6s0 0 0 0 0 0 0 0zm28 0s0 0 0 0 0 0 0 0z" stroke="#000" stroke-width="1.5"/><path d="M78.8 68.7H57.5a.6.6 0 01-.6-.6v-6.3c0-.4.3-.6.6-.6h21.3c.3 0 .5.2.5.6V68c0 .3-.2.6-.5.6zM58 67.5h20v-5.1h-20v5.1z" fill="#000"/><path d="M75.1 66.2l-.4-.1-1.5-1.4a.6.6 0 010-.9c.1-.2.5-.3.8 0l1.1 1 1.2-1c.2-.3.6-.2.8 0 .2.3.2.6 0 .9L75.4 66l-.4.2zM78.8 77H57.5a.6.6 0 01-.6-.6v-6.3c0-.4.3-.6.6-.6h21.3c.3 0 .5.2.5.6v6.3c0 .3-.2.6-.5.6zM58 75.8h20v-5.1h-20v5.1zM78.8 60.3H57.5a.6.6 0 01-.6-.6v-6.3c0-.3.3-.6.6-.6h21.3c.3 0 .5.3.5.6v6.3c0 .4-.2.6-.5.6zM58 59.1h20v-5h-20v5zM75.5 85.1h-15a3.6 3.6 0 010-7.3h15c2 0 3.6 1.7 3.6 3.7S77.5 85 75.5 85zm-15-6a2.4 2.4 0 00-2.4 2.4c0 1.3 1 2.4 2.4 2.4h15c1.3 0 2.4-1 2.4-2.4S77 79 75.5 79h-15zM71.2 65.6H60a.6.6 0 01-.6-.6c0-.3.2-.6.6-.6h11.2c.4 0 .6.3.6.6s-.2.6-.6.6z" fill="#000"/><path d="M76.2 73.8H60a.6.6 0 01-.6-.6c0-.3.2-.6.6-.6h16c.4 0 .7.3.7.6 0 .4-.3.6-.6.6zM76.2 57.2H60a.6.6 0 01-.6-.7c0-.3.2-.6.6-.6h16c.4 0 .7.3.7.6 0 .4-.3.7-.6.7zM70 24.4h-2.2l-2.9 1.8v2.2l2.7-1.7V36h2.5V24.4z" fill="#000"/><defs><filter id="filter0_d" x="0" y="0" width="136" height="136" filterUnits="userSpaceOnUse" color-interpolation-filters="sRGB"><feFlood flood-opacity="0" result="BackgroundImageFix"/><feColorMatrix in="SourceAlpha" values="0 0 0 0 0 0 0 0 0 0 0 0 0 0 0 0 0 0 127 0"/><feOffset dy="8"/><feGaussianBlur stdDeviation="8"/><feColorMatrix values="0 0 0 0 0.929412 0 0 0 0 0.0588235 0 0 0 0 0.160784 0 0 0 0.24 0"/><feBlend in2="BackgroundImageFix" result="effect1_dropShadow"/><feBlend in="SourceGraphic" in2="effect1_dropShadow" result="shape"/></filter></defs></svg>