<svg width="136" height="136" viewBox="0 0 136 136" fill="none" xmlns="http://www.w3.org/2000/svg">
<g filter="url(#filter0_d)">
<circle cx="68" cy="60" r="50" stroke="#CC1414" stroke-width="4" stroke-linecap="round" stroke-dasharray="2 8"/>
</g>
<path d="M85.6463 74.3161C85.3895 73.8706 85.0048 73.5115 84.5415 73.2849C84.1487 73.087 83.7126 72.9894 83.2724 73.0009C82.8323 73.0124 82.4019 73.1327 82.0201 73.351L75.3609 77.1725C75.253 76.6044 74.9595 76.0877 74.5262 75.7024C74.0358 75.2771 73.4072 75.0426 72.7566 75.0422H68.6686C68.5814 75.0423 68.495 75.0253 68.4144 74.9921C68.3337 74.9589 68.2605 74.9102 68.1988 74.8488L68.0369 74.6877C67.7298 74.3806 67.3646 74.1372 66.9623 73.9714C66.5601 73.8056 66.1288 73.7208 65.6933 73.722H60.5941C60.4939 73.722 60.3951 73.7286 60.2624 73.7385C59.5002 73.8138 58.7878 74.1492 58.2459 74.6877L56.5068 76.4193L55.8877 75.8034C55.7633 75.6796 55.5946 75.6101 55.4186 75.6101C55.2427 75.6101 55.0739 75.6796 54.9495 75.8034L51.1946 79.5312C51.1329 79.5925 51.084 79.6653 51.0506 79.7455C51.0172 79.8256 51 79.9115 51 79.9983C51 80.085 51.0172 80.1709 51.0506 80.2511C51.084 80.3312 51.1329 80.404 51.1946 80.4653L60.5762 89.8064C60.6378 89.8678 60.711 89.9165 60.7916 89.9497C60.8721 89.9829 60.9585 90 61.0457 90C61.1329 90 61.2192 89.9829 61.2998 89.9497C61.3803 89.9165 61.4535 89.8678 61.5151 89.8064L65.2707 86.07C65.3951 85.9462 65.465 85.7783 65.465 85.6032C65.465 85.4282 65.3951 85.2603 65.2707 85.1365L64.7445 84.613L64.8819 84.4764C65.0065 84.3531 65.1752 84.284 65.351 84.2843H72.7161C73.299 84.2856 73.8717 84.132 74.3749 83.8393L84.6729 77.9244C85.0784 77.6947 85.4151 77.3616 85.6483 76.9594C85.8815 76.5573 86.0029 76.1006 85.9999 75.6364C86 75.1731 85.878 74.7179 85.6463 74.3161ZM61.0453 88.4075L52.6019 80.0006L55.418 77.2029L63.8627 85.6046L61.0453 88.4075ZM84.01 76.7811L73.7068 82.6999C73.4063 82.8741 73.0645 82.9653 72.7168 82.964H65.3516C65.09 82.9632 64.8308 83.014 64.5891 83.1136C64.3474 83.2132 64.128 83.3596 63.9436 83.5443L63.8063 83.6809L57.445 77.3528L59.1855 75.6212C59.5077 75.3005 59.9311 75.1 60.3845 75.0535C60.4574 75.0475 60.5258 75.0422 60.5941 75.0422H65.6933C65.9544 75.0416 66.213 75.0925 66.4542 75.1918C66.6954 75.2912 66.9145 75.4371 67.0987 75.6212L67.2606 75.7823C67.445 75.9669 67.6644 76.1133 67.9061 76.2129C68.1478 76.3125 68.407 76.3634 68.6686 76.3625H72.7566C73.0841 76.362 73.4008 76.4793 73.6484 76.6926C73.8978 76.91 74.0544 77.2139 74.0863 77.5422C74.1079 77.7488 74.0776 77.9575 73.9981 78.1495C73.9372 78.3266 73.8354 78.4869 73.7008 78.6176C73.5779 78.7404 73.4318 78.8377 73.2709 78.9039C73.1099 78.97 72.9374 79.0038 72.7632 79.0031H68.3972C68.2212 79.0031 68.0525 79.0727 67.928 79.1965C67.8036 79.3203 67.7337 79.4882 67.7337 79.6633C67.7337 79.8383 67.8036 80.0063 67.928 80.1301C68.0525 80.2539 68.2212 80.3234 68.3972 80.3234H72.7632C73.1118 80.3241 73.4571 80.2561 73.7791 80.1232C74.1011 79.9902 74.3934 79.7951 74.639 79.5491C74.8544 79.3369 75.0299 79.088 75.1572 78.8143L82.6803 74.493C82.8732 74.3841 83.0903 74.3247 83.312 74.3201C83.5337 74.3155 83.753 74.3658 83.9503 74.4666C84.1791 74.5782 84.3693 74.7552 84.4964 74.9749C84.6122 75.1759 84.6733 75.4034 84.6736 75.6351C84.6752 75.8675 84.6146 76.0962 84.498 76.2976C84.3813 76.499 84.2129 76.6659 84.01 76.7811Z" fill="black"/>
<path d="M59.6579 71H83.3421C83.5166 71 83.6839 70.9309 83.8073 70.8078C83.9307 70.6847 84 70.5178 84 70.3438V50.6562C84 50.4822 83.9307 50.3153 83.8073 50.1922C83.6839 50.0691 83.5166 50 83.3421 50H59.6579C59.4834 50 59.3161 50.0691 59.1927 50.1922C59.0693 50.3153 59 50.4822 59 50.6562V70.3438C59 70.5178 59.0693 70.6847 59.1927 70.8078C59.3161 70.9309 59.4834 71 59.6579 71ZM73 51.3125V56.5625H70V51.3125H73ZM60.3158 51.3125H68.8684V57.2188C68.8684 57.3928 68.9377 57.5597 69.0611 57.6828C69.1845 57.8059 69.3518 57.875 69.5263 57.875H73.4737C73.6482 57.875 73.8155 57.8059 73.9389 57.6828C74.0623 57.5597 74.1316 57.3928 74.1316 57.2188V51.3125H82.6842V69.6875H60.3158V51.3125Z" fill="black"/>
<path d="M66.375 63H62.625C62.4592 63 62.3003 63.0527 62.1831 63.1464C62.0658 63.2402 62 63.3674 62 63.5C62 63.6326 62.0658 63.7598 62.1831 63.8536C62.3003 63.9473 62.4592 64 62.625 64H66.375C66.5408 64 66.6997 63.9473 66.8169 63.8536C66.9342 63.7598 67 63.6326 67 63.5C67 63.3674 66.9342 63.2402 66.8169 63.1464C66.6997 63.0527 66.5408 63 66.375 63Z" fill="black"/>
<path d="M66.375 65H62.625C62.4592 65 62.3003 65.0527 62.1831 65.1464C62.0658 65.2402 62 65.3674 62 65.5C62 65.6326 62.0658 65.7598 62.1831 65.8536C62.3003 65.9473 62.4592 66 62.625 66H66.375C66.5408 66 66.6997 65.9473 66.8169 65.8536C66.9342 65.7598 67 65.6326 67 65.5C67 65.3674 66.9342 65.2402 66.8169 65.1464C66.6997 65.0527 66.5408 65 66.375 65Z" fill="black"/>
<path d="M66.375 67H62.625C62.4592 67 62.3003 67.0527 62.1831 67.1464C62.0658 67.2402 62 67.3674 62 67.5C62 67.6326 62.0658 67.7598 62.1831 67.8536C62.3003 67.9473 62.4592 68 62.625 68H66.375C66.5408 68 66.6997 67.9473 66.8169 67.8536C66.9342 67.7598 67 67.6326 67 67.5C67 67.3674 66.9342 67.2402 66.8169 67.1464C66.6997 67.0527 66.5408 67 66.375 67Z" fill="black"/>
<path d="M68.6667 63H68.3333C68.2449 63 68.1601 63.0527 68.0976 63.1464C68.0351 63.2402 68 63.3674 68 63.5C68 63.6326 68.0351 63.7598 68.0976 63.8536C68.1601 63.9473 68.2449 64 68.3333 64H68.6667C68.7551 64 68.8399 63.9473 68.9024 63.8536C68.9649 63.7598 69 63.6326 69 63.5C69 63.3674 68.9649 63.2402 68.9024 63.1464C68.8399 63.0527 68.7551 63 68.6667 63Z" fill="black"/>
<path d="M68.6667 65H68.3333C68.2449 65 68.1601 65.0527 68.0976 65.1464C68.0351 65.2402 68 65.3674 68 65.5C68 65.6326 68.0351 65.7598 68.0976 65.8536C68.1601 65.9473 68.2449 66 68.3333 66H68.6667C68.7551 66 68.8399 65.9473 68.9024 65.8536C68.9649 65.7598 69 65.6326 69 65.5C69 65.3674 68.9649 65.2402 68.9024 65.1464C68.8399 65.0527 68.7551 65 68.6667 65Z" fill="black"/>
<path d="M68.6667 67H68.3333C68.2449 67 68.1601 67.0527 68.0976 67.1464C68.0351 67.2402 68 67.3674 68 67.5C68 67.6326 68.0351 67.7598 68.0976 67.8536C68.1601 67.9473 68.2449 68 68.3333 68H68.6667C68.7551 68 68.8399 67.9473 68.9024 67.8536C68.9649 67.7598 69 67.6326 69 67.5C69 67.3674 68.9649 67.2402 68.9024 67.1464C68.8399 67.0527 68.7551 67 68.6667 67Z" fill="black"/>
<path d="M73.6667 63.4H80.3333C80.4041 63.4 80.4719 63.4281 80.5219 63.4781C80.5719 63.5281 80.6 63.5959 80.6 63.6667V67.3334C80.6 67.4041 80.5719 67.4719 80.5219 67.522C80.4719 67.572 80.4041 67.6001 80.3333 67.6001H73.6667C73.5959 67.6001 73.5281 67.572 73.4781 67.522C73.4281 67.4719 73.4 67.4041 73.4 67.3334V63.6667C73.4 63.5959 73.4281 63.5281 73.4781 63.4781C73.5281 63.4281 73.5959 63.4 73.6667 63.4Z" stroke="black" stroke-width="0.8"/>
<defs>
<filter id="filter0_d" x="0" y="0" width="136" height="136" filterUnits="userSpaceOnUse" color-interpolation-filters="sRGB">
<feFlood flood-opacity="0" result="BackgroundImageFix"/>
<feColorMatrix in="SourceAlpha" type="matrix" values="0 0 0 0 0 0 0 0 0 0 0 0 0 0 0 0 0 0 127 0"/>
<feOffset dy="8"/>
<feGaussianBlur stdDeviation="8"/>
<feColorMatrix type="matrix" values="0 0 0 0 0.929412 0 0 0 0 0.0588235 0 0 0 0 0.160784 0 0 0 0.24 0"/>
<feBlend mode="normal" in2="BackgroundImageFix" result="effect1_dropShadow"/>
<feBlend mode="normal" in="SourceGraphic" in2="effect1_dropShadow" result="shape"/>
</filter>
</defs>
</svg>
