<svg width="136" height="136" viewBox="0 0 136 136" fill="none" xmlns="http://www.w3.org/2000/svg">
<g filter="url(#filter0_d)">
<circle cx="68" cy="60" r="50" stroke="#CC1414" stroke-width="4" stroke-linecap="round" stroke-dasharray="2 8"/>
</g>
<path d="M68.5 50C64.1255 50.0051 59.9315 51.7786 56.8383 54.9316C53.745 58.0845 52.005 62.3593 52 66.8182V71.8636C52.001 72.7554 52.349 73.6104 52.9676 74.241C53.5863 74.8716 54.4251 75.2263 55.3 75.2273C55.9031 75.2246 56.4937 75.0519 57.0064 74.7281C57.5666 80.7465 62.2967 87 68.5 87C72.4864 87 75.8551 84.411 77.9091 80.9679C80.2315 80.0486 82.3394 78.2617 83.2579 74.8102C83.7824 74.5253 84.2213 74.1009 84.528 73.582C84.8347 73.0632 84.9979 72.4694 85 71.8636V66.8182C84.995 62.3593 83.255 58.0845 80.1617 54.9316C77.0685 51.7786 72.8745 50.0051 68.5 50ZM68.5 51.6818C72.2238 51.6874 75.8097 53.1177 78.5483 55.6896C81.2868 58.2615 82.9784 61.7876 83.2881 65.57C82.7845 65.2749 82.2115 65.1252 81.6307 65.137C81.0499 65.1488 80.4832 65.3216 79.9915 65.6368C79.7043 62.7337 78.3698 60.0428 76.2465 58.0858C74.1233 56.1289 71.3627 55.0453 68.5002 55.0453C65.6376 55.0453 62.877 56.1289 60.7538 58.0858C58.6306 60.0428 57.296 62.7337 57.0089 65.6368C56.5171 65.3216 55.9504 65.1488 55.3696 65.137C54.7888 65.1252 54.2159 65.2749 53.7122 65.57C54.0219 61.7876 55.7134 58.2616 58.4519 55.6897C61.1904 53.1178 64.7763 51.6875 68.5 51.6818ZM77.8951 63.6566C72.7779 64.7876 68.2004 63.6419 64.9583 60.3373C64.8036 60.1796 64.5938 60.091 64.375 60.091C64.1562 60.091 63.9464 60.1796 63.7917 60.3373C62.4051 61.75 61.171 62.989 59.2174 63.3435C59.9229 61.3771 61.2118 59.6835 62.905 58.498C64.5982 57.3125 66.6116 56.694 68.6655 56.7284C70.7194 56.7628 72.7117 57.4485 74.3658 58.69C76.0198 59.9316 77.2534 61.6674 77.8951 63.6564V63.6566ZM55.3 73.5455C54.8625 73.545 54.4431 73.3677 54.1338 73.0524C53.8244 72.7371 53.6504 72.3095 53.65 71.8636V68.5C53.65 68.054 53.8238 67.6262 54.1333 67.3108C54.4427 66.9954 54.8624 66.8182 55.3 66.8182C55.7376 66.8182 56.1573 66.9954 56.4667 67.3108C56.7762 67.6262 56.95 68.054 56.95 68.5V71.8636C56.9496 72.3095 56.7756 72.7371 56.4662 73.0524C56.1569 73.3677 55.7375 73.545 55.3 73.5455ZM68.5 85.3182C62.9248 85.3182 58.6 78.99 58.6 73.5455V66.8182C58.6032 66.2394 58.6552 65.662 58.7556 65.0923C61.3206 64.8764 62.9814 63.5018 64.3895 62.102C67.0826 64.5392 70.5759 65.8558 74.1767 65.7908C75.556 65.771 76.9293 65.6015 78.2733 65.2852C78.3538 65.7922 78.3961 66.3046 78.4 66.8182V73.5455C78.3612 75.6641 77.8037 77.7393 76.778 79.5825C75.1124 80.0782 73.3821 80.3103 71.6474 80.2708C71.4776 79.7808 71.1633 79.3563 70.7475 79.0555C70.3317 78.7548 69.8348 78.5925 69.325 78.5909H67.675C67.0186 78.5909 66.3891 78.8567 65.9249 79.3298C65.4608 79.8029 65.2 80.4446 65.2 81.1136C65.2 81.7827 65.4608 82.4244 65.9249 82.8975C66.3891 83.3706 67.0186 83.6364 67.675 83.6364H69.325C69.8355 83.6348 70.3329 83.472 70.749 83.1705C71.1651 82.869 71.4793 82.4436 71.6485 81.9527C72.8981 81.9573 74.146 81.8597 75.3802 81.6608C73.6145 83.8197 71.2075 85.3182 68.5 85.3182ZM70.15 81.1136C70.1497 81.3366 70.0627 81.5503 69.908 81.7079C69.7534 81.8656 69.5437 81.9543 69.325 81.9545H67.675C67.4562 81.9545 67.2464 81.8659 67.0916 81.7082C66.9369 81.5505 66.85 81.3367 66.85 81.1136C66.85 80.8906 66.9369 80.6767 67.0916 80.519C67.2464 80.3613 67.4562 80.2727 67.675 80.2727H69.325C69.5437 80.273 69.7534 80.3617 69.908 80.5193C70.0627 80.677 70.1497 80.8907 70.15 81.1136ZM79.1755 78.3256C79.5995 77.1675 79.8745 75.9582 79.9936 74.7281C80.4241 74.9938 80.909 75.1544 81.4105 75.1974C80.9708 76.4346 80.1958 77.5193 79.1755 78.3256ZM83.35 71.8636C83.35 72.3097 83.1762 72.7375 82.8667 73.0529C82.5573 73.3683 82.1376 73.5455 81.7 73.5455C81.2624 73.5455 80.8427 73.3683 80.5333 73.0529C80.2238 72.7375 80.05 72.3097 80.05 71.8636V68.5C80.05 68.054 80.2238 67.6262 80.5333 67.3108C80.8427 66.9954 81.2624 66.8182 81.7 66.8182C82.1376 66.8182 82.5573 66.9954 82.8667 67.3108C83.1762 67.6262 83.35 68.054 83.35 68.5V71.8636Z" fill="black"/>
<defs>
<filter id="filter0_d" x="0" y="0" width="136" height="136" filterUnits="userSpaceOnUse" color-interpolation-filters="sRGB">
<feFlood flood-opacity="0" result="BackgroundImageFix"/>
<feColorMatrix in="SourceAlpha" type="matrix" values="0 0 0 0 0 0 0 0 0 0 0 0 0 0 0 0 0 0 127 0"/>
<feOffset dy="8"/>
<feGaussianBlur stdDeviation="8"/>
<feColorMatrix type="matrix" values="0 0 0 0 0.929412 0 0 0 0 0.0588235 0 0 0 0 0.160784 0 0 0 0.24 0"/>
<feBlend mode="normal" in2="BackgroundImageFix" result="effect1_dropShadow"/>
<feBlend mode="normal" in="SourceGraphic" in2="effect1_dropShadow" result="shape"/>
</filter>
</defs>
</svg>
