<svg width="136" height="136" fill="none" xmlns="http://www.w3.org/2000/svg"><g filter="url(#filter0_d)"><circle cx="68" cy="60" r="50" stroke="#CC1414" stroke-width="4" stroke-linecap="round" stroke-dasharray="2 8"/></g><path d="M68.5 50c-4.4 0-8.6 1.8-11.7 5A17 17 0 0052 66.7v5c0 1 .3 1.8 1 2.4.6.7 1.4 1 2.3 1 .6 0 1.2-.1 1.7-.5.6 6 5.3 12.3 11.5 12.3 4 0 7.4-2.6 9.4-6 2.3-1 4.4-2.7 5.4-6.2a3.3 3.3 0 001.7-3v-5A17 17 0 0080.2 55C77 51.8 72.9 50 68.5 50zm0 1.7c3.7 0 7.3 1.4 10 4 2.8 2.6 4.5 6 4.8 9.9a3.2 3.2 0 00-3.3 0c-.3-2.9-1.6-5.6-3.8-7.5a11.4 11.4 0 00-15.4 0c-2.2 2-3.5 4.6-3.8 7.5a3.2 3.2 0 00-3.3 0c.3-3.8 2-7.3 4.8-10 2.7-2.5 6.3-4 10-4zm9.4 12c-5.1 1-9.7 0-13-3.4a.8.8 0 00-1.1 0c-1.4 1.5-2.6 2.7-4.6 3 .7-2 2-3.6 3.7-4.8a9.8 9.8 0 0115 5.2zm-22.6 9.8c-.4 0-.9-.1-1.2-.4-.3-.4-.4-.8-.5-1.2v-3.4c0-.4.2-.9.5-1.2a1.6 1.6 0 012.4 0c.3.3.5.8.5 1.2v3.4c0 .4-.2.8-.5 1.2-.3.3-.8.4-1.2.4zm13.2 11.8c-5.6 0-9.9-6.3-9.9-11.8v-6.7c0-.6 0-1.1.2-1.7a8.8 8.8 0 005.6-3c2.7 2.4 6.2 3.8 9.8 3.7a19 19 0 004-.5c.2.5.2 1 .2 1.5v6.7a13 13 0 01-1.6 6c-1.7.6-3.4.8-5.2.8-.1-.5-.4-1-.9-1.2-.4-.3-.9-.5-1.4-.5h-1.6c-.7 0-1.3.3-1.8.7a2.5 2.5 0 000 3.6c.5.5 1.1.7 1.8.7h1.6c.5 0 1-.1 1.4-.4.5-.3.8-.8 1-1.2l3.7-.3a9 9 0 01-6.9 3.6zm1.7-4.2c0 .2-.1.5-.3.6-.1.2-.4.3-.6.3h-1.6c-.2 0-.5-.1-.6-.3a.8.8 0 010-1.2l.6-.2h1.6c.2 0 .5 0 .6.2l.3.6zm9-2.8c.4-1.1.7-2.3.8-3.6.4.3 1 .5 1.4.5a7 7 0 01-2.2 3.1zm4.1-6.4c0 .4-.1.8-.4 1.2a1.6 1.6 0 01-2.4 0c-.3-.4-.5-.8-.5-1.2v-3.4c0-.4.2-.9.5-1.2a1.6 1.6 0 012.4 0c.3.3.4.8.4 1.2v3.4zM64.4 36h8.3v-2h-4.9l1.7-1.8c2.4-2.1 3-3.2 3-4.6 0-2-1.6-3.4-4.1-3.4-2.4 0-4.1 1.5-4.1 3.7h2.3c0-1 .7-1.7 1.8-1.7 1 0 1.8.6 1.8 1.6s-.6 1.6-1.7 2.6l-4.1 3.8V36z" fill="#000"/><defs><filter id="filter0_d" x="0" y="0" width="136" height="136" filterUnits="userSpaceOnUse" color-interpolation-filters="sRGB"><feFlood flood-opacity="0" result="BackgroundImageFix"/><feColorMatrix in="SourceAlpha" values="0 0 0 0 0 0 0 0 0 0 0 0 0 0 0 0 0 0 127 0"/><feOffset dy="8"/><feGaussianBlur stdDeviation="8"/><feColorMatrix values="0 0 0 0 0.929412 0 0 0 0 0.0588235 0 0 0 0 0.160784 0 0 0 0.24 0"/><feBlend in2="BackgroundImageFix" result="effect1_dropShadow"/><feBlend in="SourceGraphic" in2="effect1_dropShadow" result="shape"/></filter></defs></svg>