<svg width="136" height="136" fill="none" xmlns="http://www.w3.org/2000/svg"><g filter="url(#filter0_d)"><circle cx="68" cy="60" r="50" stroke="#CC1414" stroke-width="4" stroke-linecap="round" stroke-dasharray="2 8"/></g><path d="M85.6 74.3c-.2-.4-.6-.8-1-1a2.7 2.7 0 00-2.6 0l-6.6 3.9a2.6 2.6 0 00-2.6-2.2h-4.1a.7.7 0 01-.5-.2l-.2-.1a3.3 3.3 0 00-2.3-1H60.3c-.8.1-1.5.4-2 1l-1.8 1.7-.6-.6a.7.7 0 00-1 0l-3.7 3.7a.7.7 0 000 1l9.4 9.3a.7.7 0 001 0l3.7-3.7a.7.7 0 000-1l-.6-.5.2-.1.5-.2h7.3c.6 0 1.2-.2 1.7-.5L84.7 78a2.6 2.6 0 001-3.6zM61 88.4L52.6 80l2.8-2.8 8.5 8.4-2.9 2.8zm23-11.6l-10.3 5.9a2 2 0 01-1 .3h-7.3a2 2 0 00-1.5.5v.2l-6.5-6.3 1.8-1.8a2 2 0 011.4-.6h5a2 2 0 011.5.6l.2.2a2 2 0 001.4.6h4c.4 0 .7 0 1 .3A1.3 1.3 0 0174 78c0 .2-.2.4-.3.5a1.3 1.3 0 01-1 .4h-4.3a.7.7 0 00-.7.7.7.7 0 00.7.6h4.4a2.6 2.6 0 002.4-1.5l7.5-4.3a1.3 1.3 0 011.8.5 1.3 1.3 0 01-.5 1.8zM59.7 71h23.6a.7.7 0 00.7-.7V50.7a.7.7 0 00-.7-.7H59.7a.7.7 0 00-.7.7v19.6a.7.7 0 00.7.7zM73 51.3v5.3h-3v-5.3h3zm-12.7 0H69v6a.7.7 0 00.6.6h4a.7.7 0 00.6-.7v-5.9h8.6v18.4H60.3V51.3z" fill="#000"/><path d="M66.4 63h-3.8l-.4.1-.2.4c0 .1 0 .3.2.4l.4.1h3.8l.4-.1.2-.4c0-.1 0-.3-.2-.4a.7.7 0 00-.4-.1zM66.4 65h-3.8l-.4.1-.2.4c0 .1 0 .3.2.4l.4.1h3.8l.4-.1.2-.4c0-.1 0-.3-.2-.4a.7.7 0 00-.4-.1zM66.4 67h-3.8l-.4.1-.2.4c0 .1 0 .3.2.4l.4.1h3.8l.4-.1.2-.4c0-.1 0-.3-.2-.4a.7.7 0 00-.4-.1zM68.7 63h-.4l-.2.1-.1.4.1.4.2.1h.4l.2-.1.1-.4-.1-.4-.2-.1zM68.7 65h-.4l-.2.1-.1.4.1.4.2.1h.4l.2-.1.1-.4-.1-.4-.2-.1zM68.7 67h-.4l-.2.1-.1.4.1.4.2.1h.4l.2-.1.1-.4-.1-.4-.2-.1z" fill="#000"/><path d="M73.7 63.4h6.6a.3.3 0 01.3.3v3.6a.3.3 0 01-.3.3h-6.6a.3.3 0 01-.3-.3v-3.6a.3.3 0 01.3-.3z" stroke="#000" stroke-width=".8"/><path d="M68.5 36.2c2.6 0 4.5-1.5 4.4-3.5 0-1.4-.9-2.5-2.6-2.7 1.3-.3 2.2-1.2 2.2-2.5 0-1.9-1.6-3.3-4-3.3s-4.2 1.4-4.2 3.4h2.3c0-.9.9-1.4 1.9-1.4 1 0 1.7.6 1.6 1.4 0 1-.7 1.6-1.8 1.6h-1.1V31h1c1.4 0 2.2.6 2.2 1.6 0 .9-.8 1.5-2 1.5-1 0-1.8-.5-1.9-1.4h-2.4c0 2 1.8 3.5 4.4 3.5z" fill="#000"/><defs><filter id="filter0_d" x="0" y="0" width="136" height="136" filterUnits="userSpaceOnUse" color-interpolation-filters="sRGB"><feFlood flood-opacity="0" result="BackgroundImageFix"/><feColorMatrix in="SourceAlpha" values="0 0 0 0 0 0 0 0 0 0 0 0 0 0 0 0 0 0 127 0"/><feOffset dy="8"/><feGaussianBlur stdDeviation="8"/><feColorMatrix values="0 0 0 0 0.929412 0 0 0 0 0.0588235 0 0 0 0 0.160784 0 0 0 0.24 0"/><feBlend in2="BackgroundImageFix" result="effect1_dropShadow"/><feBlend in="SourceGraphic" in2="effect1_dropShadow" result="shape"/></filter></defs></svg>